<svg width="225" height="51" viewBox="0 0 225 51" fill="none" xmlns="http://www.w3.org/2000/svg">
<g id="Group 35">
<g id="Group">
<path id="Vector" d="M162.167 32.9875C165.855 32.9875 169.02 33.0512 172.18 32.9577C173.56 32.9174 174.228 33.3147 174.2 34.7404C174.168 36.4551 174.181 38.174 174.206 39.8887C174.228 41.2741 173.496 41.5503 172.236 41.5418C164.613 41.4929 156.993 41.5227 149.371 41.5142C147.008 41.512 146.338 40.2754 147.569 38.2059C151.214 32.0844 154.871 25.9715 158.518 19.85C159.619 18.0036 159.508 17.8209 157.279 17.806C155.142 17.7933 153.003 17.7317 150.87 17.8273C149.475 17.8889 148.838 17.3109 148.714 15.9978C148.676 15.5984 148.588 15.2011 148.556 14.8016C148.147 9.64479 148.531 9.22834 153.647 9.22834C159.883 9.22834 166.119 9.22196 172.355 9.23259C175.044 9.23684 175.688 10.3545 174.306 12.6471C170.775 18.5029 167.219 24.3418 163.686 30.1955C163.225 30.9583 162.828 31.7636 162.165 32.9875H162.167Z" fill="white"/>
<path id="Vector_2" d="M179.664 25.3001C179.664 20.5321 179.709 15.7641 179.638 10.9962C179.617 9.51519 180.142 8.87776 181.613 8.90326C183.917 8.94151 186.222 8.92238 188.525 8.93301C189.732 8.93938 190.27 9.51732 190.268 10.7539C190.244 20.5194 190.246 30.2848 190.268 40.0502C190.268 41.034 189.95 41.5822 188.909 41.5885C186.399 41.6013 183.889 41.5843 181.379 41.6502C179.862 41.6884 179.626 40.9086 179.643 39.604C179.704 34.836 179.666 30.0681 179.666 25.3001H179.664Z" fill="white"/>
<path id="Vector_3" d="M216.351 9.48119C210.49 7.85999 204.557 8.66953 198.645 9.2071C197.427 9.31758 197.453 10.2121 197.455 11.1151C197.466 15.8874 197.459 20.6596 197.462 25.4318C197.462 30.2614 197.491 35.091 197.44 39.9206C197.43 41.0552 197.747 41.6586 198.954 41.648C201.411 41.6268 203.866 41.631 206.323 41.6268C207.462 41.6268 207.782 40.9808 207.754 39.9482C207.713 38.4545 207.78 36.9587 207.743 35.465C207.713 34.3155 208.114 33.8013 209.362 33.8501C210.797 33.9075 212.258 33.8693 213.679 33.6738C218.042 33.0725 221.742 31.1984 223.431 26.9744C224.293 24.8178 224.509 22.285 224.5 19.9265C224.481 14.689 221.442 10.8899 216.353 9.48119H216.351ZM214.312 21.9281C213.967 24.7051 211.552 26.4984 208.801 25.8929C208.381 25.8015 207.865 25.111 207.803 24.6456C207.658 23.5216 207.756 22.3636 207.756 21.2205H207.748C207.748 20.3621 207.82 19.4973 207.733 18.6496C207.564 17.0454 208.234 16.5163 209.81 16.6268C212.759 16.8308 214.672 19.0129 214.31 21.9281H214.312Z" fill="white"/>
</g>
<path id="Vector_4" d="M0.582644 24.6817C0.766057 21.6731 0.919612 18.6623 1.14355 15.6557C1.46132 11.3488 3.70279 9.45779 8.00019 9.40467C11.0649 9.36643 14.1253 8.97122 17.1879 8.73325C20.6002 8.46978 23.0976 10.3502 25.3775 12.4495C26.0898 13.1039 26.4396 14.4191 26.4993 15.456C26.6912 18.811 26.5953 22.1809 26.7573 25.5359C26.8981 28.449 27.5208 31.3599 27.4377 34.2581C27.2649 40.2648 23.827 43.2841 17.8085 43.1332C16.7528 43.1056 15.6971 43.0525 14.6436 43.0631C11.8647 43.0928 10.7194 44.1106 10.3334 46.8537C9.96868 49.4353 8.85541 50.8291 7.11086 50.8822C5.53692 50.929 3.50019 49.0422 3.00326 47.1618C1.05824 39.791 0.217952 32.3033 0.582644 24.6817Z" fill="white"/>
<path id="Vector_5" d="M31.1359 27.8243C31.3705 24.2653 31.4793 20.6893 31.8738 17.1473C32.3068 13.2739 34.5994 10.7773 38.3295 9.65541C42.5523 8.3848 46.9777 8.07459 50.9893 9.72553C54.617 11.2171 57.6774 13.8986 58.2405 18.299C58.5796 20.9379 59.2706 23.6045 59.1085 26.2158C58.8398 30.5886 58.1978 34.9656 57.3085 39.2577C57.0696 40.4157 55.5319 41.6225 54.3035 42.1941C51.6014 43.4477 48.6774 43.9024 45.6575 43.3032C44.7021 43.1141 43.6933 43.0376 42.7208 43.0992C36.9006 43.4774 31.6009 39.1472 31.3961 32.8749C31.3407 31.1963 31.3876 29.5135 31.3876 27.8307C31.3023 27.8285 31.2191 27.8264 31.1338 27.8243H31.1359Z" fill="white"/>
<path id="Vector_6" d="M124.19 8.54203C129.178 8.43792 133.211 10.244 136.058 14.2662C136.939 15.5113 137.389 17.1601 137.692 18.692C138.15 21.0208 138.325 23.409 138.588 25.7739C138.679 26.6068 138.805 27.4652 138.701 28.2832C138.287 31.4768 137.803 34.6597 137.317 37.8426C136.952 40.235 135.514 41.7585 133.254 42.4852C131.987 42.8931 130.656 43.4349 129.37 43.3967C125.589 43.282 121.688 43.4052 118.077 42.4894C114.608 41.6076 111.679 39.0537 111.304 35.1866C110.875 30.7565 111.095 26.2605 111.067 21.7921C111.061 20.6744 111.214 19.5547 111.242 18.4349C111.355 13.9241 113.62 10.8262 117.979 9.62779C119.997 9.07322 122.117 8.89262 124.192 8.54203H124.19Z" fill="white"/>
<path id="Vector_7" d="M62.8514 27.7478C62.8514 24.7327 62.8877 21.7177 62.8429 18.7027C62.7959 15.6047 64.1374 13.225 66.7308 11.6931C72.0242 8.5654 77.6908 7.86848 83.5898 9.71277C86.1789 10.5223 88.0024 12.3432 88.7168 14.9078C89.5017 17.7253 90.1884 20.6277 90.4102 23.5301C90.7621 28.1345 90.7493 32.7729 90.7685 37.3964C90.7749 38.7031 90.6384 40.1607 90.0455 41.2741C89.5379 42.2281 88.1559 43.4944 87.3924 43.3542C86.26 43.1481 85.2405 41.9051 84.3661 40.932C84.0398 40.5686 84.2339 39.7187 84.2296 39.0919C84.1891 33.9882 84.3256 28.876 84.0825 23.783C83.7562 16.9306 81.3846 15.2053 74.5002 16.3697C70.0621 17.1197 69 18.0822 69.0042 22.5506C69.0106 27.7967 69.4564 33.0427 69.6035 38.2909C69.6377 39.4999 69.5332 40.8958 68.9445 41.8796C68.4647 42.6806 67.1637 43.3967 66.2275 43.3967C65.4469 43.3967 64.291 42.4533 63.9668 41.6586C63.3462 40.1394 62.9879 38.4375 62.8983 36.7908C62.7362 33.7842 62.8535 30.7628 62.8535 27.7478H62.8514Z" fill="white"/>
<path id="Vector_8" d="M97.6867 39.366C97.6867 32.8111 97.676 26.2583 97.6952 19.7034C97.6995 18.2671 97.3241 17.3471 95.8227 16.631C92.7729 15.1755 92.6791 11.7355 95.6286 10.006C97.4222 8.95423 98.013 7.68574 97.8253 5.70971C97.7144 4.55596 97.7421 3.22586 98.2305 2.22934C98.6848 1.30082 99.9153 0.0302111 100.655 0.121576C101.837 0.26606 103.385 1.17334 103.891 2.19322C104.631 3.68906 104.464 5.6056 104.927 7.27354C105.172 8.15957 105.866 8.9606 106.478 9.70002C107.235 10.6179 108.824 11.4657 108.787 12.288C108.723 13.7392 108.09 15.796 107 16.444C104.635 17.8528 104.211 19.6716 104.27 22.0725C104.407 27.4567 104.426 32.8451 104.481 38.2314C104.488 38.7902 104.454 39.3533 104.388 39.9078C104.117 42.1537 102.777 43.5688 101.003 43.5178C99.1262 43.4626 97.6717 41.6395 97.6867 39.3618V39.366Z" fill="white"/>
</g>
</svg>
